M48
;GenerationSoftware,Autodesk,EAGLE,9.6.2*%
;CreationDate,2021-11-02T08:02:32Z*%
FMAT,2
ICI,OFF
METRIC,TZ,000.000
T6C0.800
T5C1.000
T4C1.016
T3C1.118
T2C4.500
%
G90
M71
T2
X5080Y86360
X93980Y86360
X5080Y5080
X93980Y5080
T3
X53594Y44196
X45974Y44196
X56134Y44196
X58674Y44196
X61214Y44196
X68834Y16510
X66294Y16510
X63754Y16510
X61214Y16510
X58674Y16510
X56134Y16510
X53594Y16510
X51054Y16510
X51054Y24130
X53594Y24130
X56134Y24130
X58674Y24130
X61214Y24130
X48514Y44196
X68834Y24130
X66294Y24130
X63754Y24130
X61214Y36576
X58674Y36576
X56134Y36576
X53594Y36576
X51054Y36576
X48514Y36576
X45974Y36576
X43434Y36576
X43434Y44196
X51054Y44196
T4
X53594Y56388
X48514Y56388
X51054Y56388
X61214Y56388
X43434Y56388
X40894Y56388
X38354Y56388
X35814Y56388
X33274Y56388
X30734Y56388
X57912Y71882
X63894Y28498
X61354Y31038
X63894Y31038
X61354Y33578
X63894Y33578
X57912Y84582
X57912Y82042
X57912Y79502
X57912Y76962
X57912Y74422
X61354Y28498
X60452Y84582
X60452Y82042
X60452Y79502
X60452Y76962
X60452Y74422
X60452Y71882
X57912Y69342
X57912Y66802
X60452Y69342
X39370Y8128
X58674Y56388
X60452Y66802
X61214Y8128
X58674Y8128
X56134Y8128
X53594Y8128
X51054Y8128
X48514Y8128
X45974Y8128
X43434Y8128
X56134Y56388
X36830Y8128
X34290Y8128
X31750Y8128
X29210Y8128
X26670Y8128
X24130Y8128
X21590Y8128
X19050Y8128
X16510Y8128
X88138Y33909
X83312Y41529
X83312Y38989
X83312Y36449
X83312Y33909
X83312Y31369
X83312Y28829
X83312Y26289
X88138Y41529
X88138Y38989
X88138Y36449
X25654Y56388
X88138Y31369
X88138Y28829
X88138Y26289
X83058Y84328
X83058Y81788
X83058Y79248
X83058Y76708
X83058Y74168
X83058Y71628
X83058Y69088
X17018Y82042
X28194Y56388
X19558Y66802
X19558Y69342
X17018Y66802
X17018Y69342
X19558Y71882
X19558Y74422
X19558Y76962
X19558Y82042
X19558Y84582
X17018Y71882
X17018Y74422
X17018Y76962
X17018Y79502
X17018Y84582
X19558Y79502
T5
X9350Y67564
X5588Y74246
X5588Y77746
T6
X6350Y62764
X3350Y67564
X63779Y26213
X63678Y48819
X56109Y51613
X29489Y27508
X56134Y27508
X76784Y77546
X76784Y36576
X74574Y36576
X74600Y16535
M30