G04 EAGLE Gerber RS-274X export*
G75*
%MOMM*%
%FSLAX34Y34*%
%LPD*%
%INSilkscreen Bottom*%
%IPPOS*%
%AMOC8*
5,1,8,0,0,1.08239X$1,22.5*%
G01*
%ADD10C,0.127000*%


D10*
X323959Y40400D02*
X322619Y40400D01*
X322619Y40401D02*
X322548Y40399D01*
X322476Y40393D01*
X322406Y40384D01*
X322336Y40371D01*
X322266Y40354D01*
X322198Y40333D01*
X322131Y40309D01*
X322065Y40281D01*
X322001Y40250D01*
X321938Y40215D01*
X321878Y40177D01*
X321819Y40136D01*
X321763Y40092D01*
X321709Y40045D01*
X321658Y39996D01*
X321610Y39943D01*
X321564Y39888D01*
X321522Y39831D01*
X321482Y39771D01*
X321446Y39710D01*
X321413Y39646D01*
X321384Y39581D01*
X321358Y39515D01*
X321335Y39447D01*
X321316Y39378D01*
X321301Y39308D01*
X321290Y39238D01*
X321282Y39167D01*
X321278Y39096D01*
X321278Y39024D01*
X321282Y38953D01*
X321290Y38882D01*
X321301Y38812D01*
X321316Y38742D01*
X321335Y38673D01*
X321358Y38605D01*
X321384Y38539D01*
X321413Y38474D01*
X321446Y38410D01*
X321482Y38349D01*
X321522Y38289D01*
X321564Y38232D01*
X321610Y38177D01*
X321658Y38124D01*
X321709Y38075D01*
X321763Y38028D01*
X321819Y37984D01*
X321878Y37943D01*
X321938Y37905D01*
X322001Y37870D01*
X322065Y37839D01*
X322131Y37811D01*
X322198Y37787D01*
X322266Y37766D01*
X322336Y37749D01*
X322406Y37736D01*
X322476Y37727D01*
X322548Y37721D01*
X322619Y37719D01*
X323959Y37719D01*
X323959Y42545D01*
X322619Y42545D01*
X322554Y42543D01*
X322490Y42537D01*
X322426Y42527D01*
X322362Y42514D01*
X322300Y42496D01*
X322239Y42475D01*
X322179Y42451D01*
X322121Y42422D01*
X322064Y42390D01*
X322010Y42355D01*
X321958Y42317D01*
X321908Y42275D01*
X321861Y42231D01*
X321817Y42184D01*
X321775Y42134D01*
X321737Y42082D01*
X321702Y42028D01*
X321670Y41971D01*
X321641Y41913D01*
X321617Y41853D01*
X321596Y41792D01*
X321578Y41730D01*
X321565Y41666D01*
X321555Y41602D01*
X321549Y41538D01*
X321547Y41473D01*
X321549Y41408D01*
X321555Y41344D01*
X321565Y41280D01*
X321578Y41216D01*
X321596Y41154D01*
X321617Y41093D01*
X321641Y41033D01*
X321670Y40975D01*
X321702Y40918D01*
X321737Y40864D01*
X321775Y40812D01*
X321817Y40762D01*
X321861Y40715D01*
X321908Y40671D01*
X321958Y40629D01*
X322010Y40591D01*
X322064Y40556D01*
X322121Y40524D01*
X322179Y40495D01*
X322239Y40471D01*
X322300Y40450D01*
X322362Y40432D01*
X322426Y40419D01*
X322490Y40409D01*
X322554Y40403D01*
X322619Y40401D01*
X318802Y41473D02*
X317462Y42545D01*
X317462Y37719D01*
X318802Y37719D02*
X316121Y37719D01*
M02*
