G04 EAGLE Gerber RS-274X export*
G75*
%MOMM*%
%FSLAX34Y34*%
%LPD*%
%INSoldermask Top*%
%IPPOS*%
%AMOC8*
5,1,8,0,0,1.08239X$1,22.5*%
G01*
%ADD10C,4.703200*%
%ADD11C,1.727200*%
%ADD12P,1.869504X8X292.500000*%
%ADD13R,1.879600X1.879600*%
%ADD14C,1.879600*%
%ADD15C,2.387600*%
%ADD16C,2.387600*%
%ADD17C,2.133600*%
%ADD18C,1.409600*%


D10*
X50800Y863600D03*
X939800Y863600D03*
X50800Y50800D03*
X939800Y50800D03*
D11*
X838200Y690880D02*
X822960Y690880D01*
X822960Y716280D02*
X838200Y716280D01*
X838200Y741680D02*
X822960Y741680D01*
X822960Y767080D02*
X838200Y767080D01*
X838200Y792480D02*
X822960Y792480D01*
X822960Y817880D02*
X838200Y817880D01*
X838200Y843280D02*
X822960Y843280D01*
X873760Y262890D02*
X889000Y262890D01*
X889000Y288290D02*
X873760Y288290D01*
X873760Y313690D02*
X889000Y313690D01*
X889000Y339090D02*
X873760Y339090D01*
X873760Y364490D02*
X889000Y364490D01*
X889000Y389890D02*
X873760Y389890D01*
X873760Y415290D02*
X889000Y415290D01*
X840740Y262890D02*
X825500Y262890D01*
X825500Y288290D02*
X840740Y288290D01*
X840740Y313690D02*
X825500Y313690D01*
X825500Y339090D02*
X840740Y339090D01*
X840740Y364490D02*
X825500Y364490D01*
X825500Y389890D02*
X840740Y389890D01*
X840740Y415290D02*
X825500Y415290D01*
D12*
X170180Y845820D03*
X170180Y820420D03*
X170180Y795020D03*
X170180Y769620D03*
X170180Y744220D03*
X170180Y718820D03*
X195580Y845820D03*
X195580Y820420D03*
X195580Y795020D03*
X195580Y769620D03*
X195580Y744220D03*
X195580Y718820D03*
X170180Y693420D03*
X170180Y668020D03*
X195580Y693420D03*
X195580Y668020D03*
D13*
X688340Y241300D03*
D14*
X662940Y241300D03*
X637540Y241300D03*
X612140Y241300D03*
X586740Y241300D03*
X561340Y241300D03*
X535940Y241300D03*
X510540Y241300D03*
X510540Y165100D03*
X535940Y165100D03*
X561340Y165100D03*
X586740Y165100D03*
X612140Y165100D03*
X637540Y165100D03*
X662940Y165100D03*
X688340Y165100D03*
D13*
X612140Y441960D03*
D14*
X586740Y441960D03*
X561340Y441960D03*
X535940Y441960D03*
X510540Y441960D03*
X485140Y441960D03*
X459740Y441960D03*
X434340Y441960D03*
X434340Y365760D03*
X459740Y365760D03*
X485140Y365760D03*
X510540Y365760D03*
X535940Y365760D03*
X561340Y365760D03*
X586740Y365760D03*
X612140Y365760D03*
D15*
X55880Y777460D03*
X55880Y742460D03*
D16*
X52578Y627640D02*
X74422Y627640D01*
X33500Y664718D02*
X33500Y686562D01*
X93500Y686562D02*
X93500Y664718D01*
D17*
X256540Y563880D03*
X281940Y563880D03*
X307340Y563880D03*
X332740Y563880D03*
X358140Y563880D03*
X383540Y563880D03*
X408940Y563880D03*
X434340Y563880D03*
X485140Y563880D03*
X510540Y563880D03*
X535940Y563880D03*
X561340Y563880D03*
X586740Y563880D03*
X612140Y563880D03*
X612140Y81280D03*
X586740Y81280D03*
X561340Y81280D03*
X535940Y81280D03*
X510540Y81280D03*
X485140Y81280D03*
X459740Y81280D03*
X434340Y81280D03*
X393700Y81280D03*
X368300Y81280D03*
X342900Y81280D03*
X317500Y81280D03*
X292100Y81280D03*
X266700Y81280D03*
X241300Y81280D03*
X215900Y81280D03*
X190500Y81280D03*
X165100Y81280D03*
X613540Y284980D03*
X638940Y284980D03*
X613540Y310380D03*
X638940Y310380D03*
X613540Y335780D03*
X638940Y335780D03*
D12*
X579120Y845820D03*
X579120Y820420D03*
X579120Y795020D03*
X579120Y769620D03*
X579120Y744220D03*
X579120Y718820D03*
X604520Y845820D03*
X604520Y820420D03*
X604520Y795020D03*
X604520Y769620D03*
X604520Y744220D03*
X604520Y718820D03*
X579120Y693420D03*
X579120Y668020D03*
X604520Y693420D03*
X604520Y668020D03*
D18*
X745998Y165354D03*
X745744Y365760D03*
X767842Y365760D03*
X767842Y775462D03*
X561340Y275082D03*
X294894Y275082D03*
X561086Y516128D03*
X636778Y488188D03*
X637794Y262128D03*
M02*
